#define Anniversary_width 16
#define Anniversary_height 16
static unsigned char Anniversary_bits[] = {
  0x40, 0x02, 0xc8, 0x16, 0xd8, 0x2f, 0x70, 0x56, 0xf8, 0x29, 0x88, 0x6f,
  0x08, 0xbc, 0x08, 0xf0, 0x08, 0x90, 0x10, 0x10, 0x10, 0x0c, 0x10, 0x02,
  0x90, 0x01, 0x48, 0x00, 0x48, 0x00, 0x78, 0x00, };
