/* XPM */
static char * Anniversary_xpm[] = {
"16 16 8 1",
"       s backgroundColor c None",
".      c #FFFF659571C6",
"X      c #FFFFA699A699",
"o      c #00009E790000",
"O      c #FFFFBAEA5144",
"+      c #FFFFFFFFFFFF",
"@      c #000000000000",
"#      c #0000FFFF0000",
"     .   X      ",
"   o .OO XX X   ",
"  + o.OO.XXXXX  ",
"   +ooo+.. XXOO ",
"   @@@@o...o..O ",
"   @+++@@@o+...O",
"   @++++++@@#o+ ",
"   @++++++++@oo ",
"   @++++++++@+ o",
"    @+++++++@   ",
"    @+++++@@    ",
"    @++++@      ",
"    @++@@       ",
"   @++@         ",
"   @++@         ",
"   @@@@         "};
