/* XPM */
static char * Birthday_xpm[] = {
"16 16 6 1",
"       s backgroundColor c None",
".      c #FFFFB6DA28A2",
"X      c #FFFFFFFF0000",
"o      c #00000000FFFF",
"O      c #000000000000",
"+      c #FFFFFFFFFFFF",
"                ",
"                ",
"   .  .  .  .   ",
"   X  X  X  X   ",
"   o  o  o  o   ",
"   o  o  o  o   ",
"   o  o  o  o   ",
"  OOOOOOOOOOOO  ",
"  O++++++++++O  ",
"  O+O+O++O+O+O  ",
"  OO.O.OO.O.OO  ",
"  O..........O  ",
"  O..........O  ",
"  O..........O  ",
"  OOOOOOOOOOOO  ",
"                "};
