#define Birthday_width 16
#define Birthday_height 16
static unsigned char Birthday_bits[] = {
  0x00, 0x00, 0x00, 0x00, 0x48, 0x12, 0x00, 0x00, 0x48, 0x12, 0x48, 0x12,
  0x48, 0x12, 0xfc, 0x3f, 0x04, 0x20, 0x54, 0x2a, 0xfc, 0x3f, 0xfc, 0x3f,
  0xfc, 0x3f, 0xfc, 0x3f, 0xfc, 0x3f, 0x00, 0x00, };
