/* XPM */
static char * Business_xpm[] = {
"16 16 5 1",
"       s backgroundColor c None",
".      c #79E765954924",
"X      c #CF3CAAAA79E7",
"o      c #000000000000",
"O      c #FFFFCF3C9658",
"                ",
"     ......     ",
"    .XXXXXX.    ",
"    .X.  .X.    ",
" oooooooooooooo ",
" oOOOOOOOOOOOOo ",
" oOXXXXXXXXXX.o ",
" oOXXXXXXXXXX.o ",
" oOXXXXXXXXXX.o ",
" oOXXXXXXXXXX.o ",
" oOXXXXXXXXXX.o ",
" oOXXXXXXXXXX.o ",
" o............o ",
" oooooooooooooo ",
"                ",
"                "};
