#define Business_width 16
#define Business_height 16
static unsigned char Business_bits[] = {
   0x00, 0x00, 0x00, 0x00, 0xe0, 0x07, 0xe0, 0x07, 0x60, 0x06, 0xfc, 0x3f,
   0xfc, 0x3f, 0xfc, 0x3f, 0xfc, 0x3f, 0xfc, 0x3f, 0xfc, 0x3f, 0xfc, 0x3f,
   0xfc, 0x3f, 0x00, 0x00, 0x00, 0x00, 0x00, 0x00};
