#define CheckedBox_width 16
#define CheckedBox_height 16
static unsigned char CheckedBox_bits[] = {
  0x00, 0x00, 0xfe, 0x7f, 0x02, 0x58, 0x02, 0x4c, 0x02, 0x4e, 0x22, 0x47,
  0x72, 0x47, 0xf2, 0x43, 0xe2, 0x43, 0xc2, 0x43, 0x82, 0x41, 0x02, 0x40,
  0x02, 0x40, 0x02, 0x40, 0xfe, 0x7f, 0x00, 0x00, };
