/* XPM */
static char * CheckBox_xpm[] = {
"16 16 5 1",
"       s backgroundColor c None",
".      c #000000",
"+      c #717171",
"@      c #BEBEBE",
"#      c #E7E7E7",
"                ",
" .............. ",
" .++++++++++++@ ",
" .+@@@@@@@@@@@# ",
" .+@@@@@@@@@@@# ",
" .+@@@@@@@@@@@# ",
" .+@@@@@@@@@@@# ",
" .+@@@@@@@@@@@# ",
" .+@@@@@@@@@@@# ",
" .+@@@@@@@@@@@# ",
" .+@@@@@@@@@@@# ",
" .+@@@@@@@@@@@# ",
" .+@@@@@@@@@@@# ",
" .+@@@@@@@@@@@# ",
" @############# ",
"                "};
