#define Conflict_width 16
#define Conflict_height 16
static char Conflict_bits[] = {
 0x80,0x40,0x80,0x30,0xc1,0x19,0xfe,0x1f,0xfc,0x1f,0x78,0x3e,0x78,0xfe,0x7c,
 0x3e,0x7f,0x1e,0xfc,0x1f,0x78,0x1e,0xf8,0x3f,0xf8,0x7f,0x9c,0x87,0x02,0x03,
 0x00,0x04};
