/* XPM */
static char * Date_xpm[] = {
"16 14 12 1",
"       s backgroundColor c None",
".      c #FFFF00000000",
"X      c #FFFF0C300820",
"o      c #FFFF1C711861",
"O      c #FFFF28A22081",
"+      c #FFFF3CF330C2",
"@      c #FFFF49244103",
"#      c #FFFF59655144",
"$      c #FFFF69A65965",
"%      c #FFFF79E769A6",
"&      c #FFFF861779E7",
"*      c #FFFF96588E38",
"                ",
"                ",
"     ..   ...   ",
"    XXXX XXXXX  ",
"    oooooooooo  ",
"    OOOOOOOOOO  ",
"    +++++++++   ",
"    @@@@@@@@@   ",
"     #######    ",
"      $$$$$     ",
"      %%%%      ",
"       &&       ",
"        *       ",
"                "};
