#define Holiday_width 16
#define Holiday_height 16
static unsigned char Holiday_bits[] = {
  0x00, 0x00, 0x00, 0x00, 0x00, 0x00, 0x00, 0x00, 0xfe, 0x7f, 0x02, 0x40,
  0x82, 0x41, 0xc2, 0x43, 0xe2, 0x47, 0xe2, 0x47, 0xc2, 0x43, 0x82, 0x41,
  0x02, 0x40, 0xfe, 0x7f, 0x00, 0x00, 0x00, 0x00, };
