#define Link_width 16
#define Link_height 16
static unsigned char Link_bits[] = {
   0x00, 0x00, 0x00, 0x00, 0x00, 0x30, 0x00, 0x38, 0x00, 0x1d, 0x80, 0x0e,
   0xc0, 0x06, 0x60, 0x08, 0x30, 0x0c, 0x10, 0x06, 0x60, 0x03, 0x70, 0x01,
   0xb8, 0x00, 0x18, 0x00, 0x00, 0x00, 0x00, 0x00};
