#define Other_width 16
#define Other_height 16
static unsigned char Other_bits[] = {
  0x00, 0x00, 0x00, 0x00, 0x00, 0x00, 0xe0, 0x03, 0xf0, 0x07, 0x30, 0x06,
  0x00, 0x06, 0x00, 0x07, 0xc0, 0x03, 0xc0, 0x00, 0xc0, 0x00, 0x00, 0x00,
  0x00, 0x00, 0xc0, 0x00, 0xc0, 0x00, 0x00, 0x00, };
