/* XPM */
static char * Other_xpm[] = {
"16 16 9 1",
"       s backgroundColor c None",
".      c #FFFF9E79AEBA",
"X      c #FFFF8A289658",
"o      c #FFFF75D679E7",
"O      c #FFFF618569A6",
"+      c #FFFF4D345144",
"@      c #FFFF38E338E3",
"#      c #FFFF28A228A2",
"$      c #FFFF14511040",
"                ",
"                ",
"                ",
"     .....      ",
"    XXXXXXX     ",
"    oo   oo     ",
"         OO     ",
"        +++     ",
"      @@@@      ",
"      ##        ",
"      $$        ",
"                ",
"      ..        ",
"      ++        ",
"                ",
"                "};
