#define Private_width 16
#define Private_height 16
static unsigned char Private_bits[] = {
   0x00, 0x00, 0xc0, 0x03, 0xe0, 0x07, 0x70, 0x0e, 0x30, 0x0c, 0x30, 0x0c,
   0xfc, 0x3f, 0x7c, 0x3e, 0x3c, 0x3c, 0x3c, 0x3c, 0x7c, 0x3e, 0x7c, 0x3e,
   0x7c, 0x3e, 0xfc, 0x3f, 0x00, 0x00, 0x00, 0x00};
