/* XPM */
static char *Recurrence[] = {
/* columns rows colors chars-per-pixel */
"16 16 76 1 ",
"  c #0E5F7A",
". c #0F637E",
"X c #106480",
"o c #116580",
"O c #116884",
"+ c #136B87",
"@ c #136B88",
"# c #126C89",
"$ c #136C89",
"% c #157290",
"& c #157391",
"* c #157492",
"= c #147493",
"- c #157695",
"; c #147796",
": c #157796",
"> c #167897",
", c #147898",
"< c #177A9A",
"1 c #167B9B",
"2 c #177B9B",
"3 c #167C9C",
"4 c #177D9E",
"5 c #1880A2",
"6 c #1981A2",
"7 c #1A82A3",
"8 c #1A82A4",
"9 c #1984A6",
"0 c #1986A9",
"q c #1A86A9",
"w c #1A87A9",
"e c #1987AA",
"r c #1A87AA",
"t c #1B8BAF",
"y c #1C8BAF",
"u c #1C8CAF",
"i c #1D91B6",
"p c #1F95BA",
"a c #1F95BB",
"s c #1F96BD",
"d c #1F97BD",
"f c #1E99BD",
"g c #209AC1",
"h c #209BC2",
"j c #209CC4",
"k c #219CC4",
"l c #229DC4",
"z c #219EC5",
"x c #229EC5",
"c c #21A0C6",
"v c #23A3CB",
"b c #23A4CD",
"n c #24A4CD",
"m c #24A5CE",
"M c #24A5CF",
"N c #24ADC9",
"B c #24ADCA",
"V c #24AAD3",
"C c #24ADD0",
"Z c #25AED1",
"A c #26ACD6",
"S c #26ACD7",
"D c #27ADD8",
"F c #26AFD9",
"G c #27AFDA",
"H c #26B5D1",
"J c #26B5D2",
"K c #28B3DF",
"L c #29B4E0",
"P c #28B5E0",
"I c #29B6E2",
"U c #29B7E2",
"Y c #2ABCE4",
"T c #2BBBE8",
"R c #2BBDE8",
"E c None",
/* pixels */
"EEEEEEEEEEEEEEEE",
"EEEEEECHHCEEEEEE",
"EEEECTTTTTTHEfcE",
"EEEVIKKKKKKPFPlE",
"EEhFVFmldmVVFFsE",
"EEmmmsEEE3lmmmiE",
"E0llsEEEE0llllyE",
"E9pp0EEEE0y0003E",
"E<yy9EEEEEEEEEEE",
"E%995EEEEEEEEEEE",
"EE><<3EEEEEEEEEE",
"EE+;@;;;;;;EEEEE",
"EEE+@@@@@@++EEEE",
"EEEE.oooooo.EEEE",
"EEEEEE    EEEEEE",
"EEEEEEEEEEEEEEEE"
};
