#define Recurrence_width 16
#define Recurrence_height 16
static char Recurrence_bits[] = {
  0xFF, 0xFF, 0x7F, 0xEF, 0xBF, 0xFC, 0x6D, 0xE7, 0xEF, 0xD7, 0xFA, 0xFF,
  0xBF, 0xFB, 0x7F, 0xFF, 0xFF, 0xFF, 0xBF, 0xFF, 0xFF, 0xFF, 0xFF, 0xFF,
  0xFF, 0xFF, 0xFF, 0xFF, 0xFF, 0xFF, 0xFF, 0xFF, };
