/* XPM */
static char * Vacation_xpm[] = {
"16 16 7 1",
"       s backgroundColor c None",
".      c #FFFFFFFFFFFF",
"X      c #000000000000",
"o      c #DF7DDF7DDF7D",
"O      c #0000FFFFFFFF",
"+      c #BEFBBEFBBEFB",
"@      c #FFFFF7DE8617",
"        ......  ",
"       .XXXXXX. ",
"      .XoooooX. ",
"      .XXXXXXX. ",
"       ..X..X.  ",
"       .XXXXXX. ",
"      .XOO++OX. ",
"     .XOOO++OX. ",
"   ..XOOOO++OX. ",
"  .XXXXXXXXXXXX.",
" .XXXXXXXXXXXXX.",
".X@XXXXXXXXXXXX.",
".XXXXXXXXXXXXXX.",
".XXXoXXXXXXXoXX.",
" ..XXX.....XXX. ",
"   ...     ...  "};
