#define Vacation_width 16
#define Vacation_height 16
static unsigned char Vacation_bits[] = {
  0x00, 0x00, 0x00, 0x3f, 0x80, 0x20, 0x80, 0x3f, 0x00, 0x12, 0x00, 0x3f,
  0x80, 0x2c, 0x40, 0x2c, 0x20, 0x2c, 0xf8, 0x7f, 0xfc, 0x7f, 0xfa, 0x7f,
  0xfe, 0x7f, 0xee, 0x6f, 0x38, 0x38, 0x00, 0x00, };
