/* XPM */
static char *magick[] = {
/* columns rows colors chars-per-pixel */
"25 10 2 1",
"* c Purple",
"  c None",
/* pixels */
"**** **   ***** **** ****",
"**** **   ***** **** ****",
"**   **   ** ** **   **  ",
"**   **   ** ** **   **  ",
"**   **   ** ** **** ****",
"**   **   ** ** **** ****",
"**   **   ** **   ** **  ",
"**   **   ** **   ** **  ",
"**** **** ***** **** ****",
"**** **** ***** **** ****"
};
