/* XPM */
static char *delete[] = {
/* width height num_colors chars_per_pixel */
"    16    10        2            1",
/* colors */
". c None",
"# c Red",
/* pixels */
"###....####.##..",
"####...####.##..",
"#####..##...##..",
"##.###.##...##..",
"##..##.####.##..",
"##..##.####.##..",
"##.###.##...##..",
"#####..##...##..",
"####...####.####",
"###....####.####"
};
