/* XPM */
static char *magick[] = {
/* columns rows colors chars-per-pixel */
"18 10 2 1",
"* c Brown",
"  c None",
/* pixels */
"******************",
"*                *",
"* **  **  **  ** *",
"* **  **  **  ** *",
"*                *",
"* **  **  **  ** *",
"* **  **  **  ** *",
"*                *",
"* **  **  **  ** *",
"******************"
};
