/* XPM */
static char * next_year_xpm[] = {
/* columns rows colors chars-per-pixel */
"18 10 2 1",
/*US*/
"       c None",
".      c Brown",
/* pixels */
"   ...   ...      ",
"   .....   ...    ",
"   .......   ...  ",
"   .........   ...",
"   .......   ...  ",
"   .....   ...    ",
"   ...   ...      ",
"                  ",
"                  ",
"                  "};
