/* XPM */
static char *open[] = {
/* width height num_colors chars_per_pixel */
"    15    10        2            1",
/* colors */
". c None",
"* c Red",
/* pixels */
"    *     *****",
"  *****   *****",
" *******  *****",
"**  *  ** *****",
"**  *  ** *****",
"**  ***** *****",
"**     ** *   *",
"**     ** ** **",
" *******   *** ",
"  *****     *  "
};
