/* XPM */
static char *save[] = {
/* width height num_colors chars_per_pixel */
"    23    10        2            1",
/* colors */
"* c Black",
"  c None",
/* pixels */
"**** ****** **  ** ****",
"**** ****** **  ** ****",
"**   **  ** **  ** **  ",
"**   **  ** **  ** **  ",
"**** ****** **  ** ****",
"**** ****** **  ** ****",
"  ** ****** **  ** **  ",
"  ** **  ** ****** **  ",
"**** **  **  ****  ****",
"**** **  **   **   ****"
};
