/* XPM */
static char *magick[] = {
/* columns rows colors chars-per-pixel */
"20 10 2 1",
"  c None",
"* c Black",
/* pixels */
"    *************** ",
"   *****************",
"   *****************",
"   *****        ****",
"***********     ****",
" *********      ****",
"  *******       ****",
"   *****   *********",
"    ***    *********",
"     *     *********"
};
